<svg width="132" height="36" viewBox="0 0 132 36" fill="none" xmlns="http://www.w3.org/2000/svg">
<path d="M6.22742 0H49.5L47.6903 12.0916H45.5613L47.0516 2.19847H7.18548L5.90806 10.7176H3.72581L5.32258 0H6.22742ZM45.721 26.4366L44.1774 36H0L1.4371 26.4366H3.56613L2.50161 33.8015H42.3677L43.5919 26.4366H45.721Z" fill="#E6007E"/>
<path d="M25.8146 8.13435L17.5114 24.8428H13.4662L12.5082 16.5435L8.25009 24.8428H4.1517L2.66138 12.3664H6.38718L7.2388 19.8412L11.763 11.0473H15.2759L16.234 19.9511L22.0888 8.13435H25.8146ZM35.2356 14.1802L33.1598 24.8428H29.7001L29.913 23.8534C29.0614 24.6229 28.1033 25.0626 26.9323 25.0626C26.1872 25.0626 25.442 24.8428 24.8033 24.458C24.1114 24.0733 23.5791 23.5237 23.2065 22.7542C22.7807 22.0397 22.6211 21.1603 22.6211 20.171C22.6211 19.0168 22.8872 17.9725 23.3662 17.0382C23.8452 16.1038 24.5372 15.3344 25.3888 14.8397C26.2404 14.2901 27.1985 14.0153 28.2098 14.0153C29.7001 14.0153 30.7646 14.5099 31.4033 15.4992L31.6694 14.2351H35.2356V14.1802ZM28.2098 21.9847C28.9549 21.9847 29.5404 21.7099 29.9662 21.1603C30.4452 20.6107 30.6582 19.8962 30.6582 19.0168C30.6582 18.4122 30.4985 17.8626 30.1259 17.5328C29.7533 17.1481 29.2743 16.9832 28.6888 16.9832C27.9436 16.9832 27.3582 17.258 26.9323 17.8076C26.4533 18.3573 26.2404 19.0718 26.2404 19.9511C26.2404 20.5557 26.4001 21.1053 26.7727 21.4351C27.1452 21.8198 27.6243 21.9847 28.2098 21.9847ZM48.4888 14.1802L41.8356 25.3374C41.3033 26.2168 40.7711 26.9313 40.2388 27.4809C39.7598 27.9756 39.2275 28.3603 38.642 28.5802C38.0565 28.8 37.4178 28.9099 36.6727 28.9099C36.1404 28.9099 35.5549 28.8 35.0227 28.6351C34.4904 28.4702 34.0646 28.2504 33.7453 27.9756L35.342 25.3374C35.8211 25.7221 36.3533 25.942 36.9388 25.942C37.2582 25.942 37.5243 25.887 37.7904 25.7221C38.0033 25.5573 38.2694 25.3374 38.4823 25.0076L36.1936 14.1802H39.813L41.0904 20.7206L44.9227 14.1802H48.4888ZM54.8759 25.0076C53.5452 25.0076 52.4275 24.7878 51.4694 24.2931C50.5114 23.7985 49.7662 23.1389 49.2872 22.2595C48.7549 21.3802 48.542 20.3908 48.542 19.2366C48.542 17.6977 48.8614 16.3237 49.5533 15.0595C50.2453 13.7954 51.2033 12.8061 52.4275 12.0366C53.6517 11.3221 55.0888 10.9374 56.7388 10.9374C57.8565 10.9374 58.8146 11.1023 59.6662 11.487C60.5178 11.8718 61.1565 12.3664 61.6356 13.0809L60.2517 14.2901C59.4533 13.1908 58.2291 12.6962 56.5791 12.6962C55.3549 12.6962 54.2372 12.971 53.3323 13.5756C52.4275 14.1802 51.6823 14.9496 51.2033 15.884C50.7243 16.8733 50.4582 17.9176 50.4582 19.1267C50.4582 20.3908 50.8307 21.4351 51.6291 22.1496C52.4275 22.9191 53.5452 23.3038 55.0356 23.3038C56.6856 23.3038 58.0162 22.7542 59.0807 21.655L60.1985 22.974C59.613 23.6336 58.8146 24.1832 57.9098 24.513C57.0049 24.8428 55.9936 25.0076 54.8759 25.0076ZM73.5049 14.4L71.4824 24.8428H69.7259L69.992 23.5786C69.513 24.0183 68.9807 24.3481 68.3952 24.6229C67.8098 24.8428 67.1178 25.0076 66.4259 25.0076C65.5743 25.0076 64.7759 24.8428 64.1372 24.458C63.4453 24.0733 62.913 23.5786 62.5404 22.8641C62.1678 22.2046 61.9549 21.3802 61.9549 20.4458C61.9549 19.2366 62.2211 18.1924 62.7001 17.258C63.1791 16.3237 63.8711 15.6092 64.7759 15.0595C65.6275 14.5099 66.6388 14.2901 67.7033 14.2901C68.5549 14.2901 69.3001 14.455 69.9388 14.7847C70.5775 15.1145 71.0033 15.5542 71.3759 16.1588L71.6953 14.4H73.5049ZM66.8517 23.3038C67.5969 23.3038 68.2888 23.1389 68.8743 22.7542C69.4598 22.3695 69.9388 21.8748 70.3114 21.1603C70.6307 20.5008 70.8436 19.7313 70.8436 18.8519C70.8436 17.9176 70.5775 17.2031 70.0453 16.7084C69.513 16.2137 68.7678 15.9389 67.8098 15.9389C67.0646 15.9389 66.3727 16.1038 65.7872 16.4886C65.2017 16.8733 64.7227 17.3679 64.3501 18.0824C64.0307 18.742 63.8178 19.5115 63.8178 20.3908C63.8178 21.3252 64.084 22.0397 64.6162 22.5344C65.1485 23.029 65.8936 23.3038 66.8517 23.3038ZM77.7098 21.545C77.6565 21.7649 77.6565 21.9298 77.6565 22.0947C77.6565 22.5344 77.763 22.8641 77.9759 23.084C78.1888 23.3038 78.5082 23.4137 78.9872 23.4137C79.5194 23.4137 79.9985 23.2489 80.4243 22.9191L80.7969 24.3481C80.2114 24.7878 79.413 25.0076 78.4549 25.0076C77.6565 25.0076 77.0178 24.7878 76.5388 24.2931C76.0598 23.8534 75.7936 23.1939 75.7936 22.3695C75.7936 22.0947 75.7936 21.8198 75.8469 21.6L76.9114 15.9939H75.2082L75.4743 14.455H77.2307L77.7098 12.0916H79.5194L79.0936 14.4H82.0211L81.7017 15.9389H78.7743L77.7098 21.545ZM84.3098 20.226V20.3359C84.3098 21.3252 84.5759 22.0397 85.1082 22.5344C85.6404 23.029 86.4388 23.3038 87.5033 23.3038C88.142 23.3038 88.7275 23.1939 89.2598 22.974C89.792 22.7542 90.2711 22.4794 90.6436 22.0947L91.442 23.4687C90.963 23.9634 90.3243 24.2931 89.6323 24.5679C88.9404 24.8428 88.1953 24.9527 87.3969 24.9527C86.3856 24.9527 85.534 24.7878 84.842 24.4031C84.0969 24.0183 83.5646 23.5237 83.1388 22.8092C82.7662 22.1496 82.5533 21.3252 82.5533 20.3908C82.5533 19.2366 82.8194 18.1924 83.2985 17.258C83.7775 16.3237 84.4694 15.6092 85.3211 15.0595C86.1727 14.5099 87.184 14.2901 88.2485 14.2901C89.6324 14.2901 90.6969 14.6748 91.5485 15.4992C92.3469 16.3237 92.7727 17.4229 92.7727 18.7969C92.7727 19.2366 92.7194 19.6763 92.613 20.171H84.3098V20.226ZM88.1953 15.884C87.2904 15.884 86.492 16.1588 85.8533 16.6534C85.2146 17.2031 84.7888 17.9176 84.5227 18.7969H91.0695C91.1227 17.8626 90.8565 17.1481 90.3775 16.5985C89.792 16.1588 89.1001 15.884 88.1953 15.884ZM97.7227 15.9389C98.1485 15.3344 98.734 14.9496 99.3727 14.6748C100.011 14.4 100.81 14.2901 101.715 14.2901L101.395 16.1038C101.289 16.1038 101.129 16.1038 100.916 16.1038C98.8404 16.1038 97.563 17.258 97.084 19.6214L96.0727 24.8428H94.2098L96.2324 14.4H97.9888L97.7227 15.9389ZM103.897 14.4H105.707L103.684 24.8428H101.874L103.897 14.4ZM105.387 12.3664C105.068 12.3664 104.802 12.2565 104.589 12.0366C104.376 11.8168 104.269 11.542 104.269 11.2122C104.269 10.8275 104.376 10.5527 104.642 10.2779C104.908 10.0031 105.228 9.89313 105.6 9.89313C105.919 9.89313 106.186 10.0031 106.452 10.2229C106.665 10.4428 106.771 10.7176 106.771 10.9924C106.771 11.3771 106.665 11.7069 106.398 11.9817C106.079 12.2565 105.76 12.3664 105.387 12.3664ZM114.436 14.2901C115.607 14.2901 116.511 14.5649 117.15 15.1695C117.789 15.774 118.108 16.6534 118.108 17.7527C118.108 18.1374 118.055 18.5221 118.002 18.9618L116.884 24.8428H115.074L116.192 18.9618C116.245 18.6321 116.298 18.3023 116.298 18.0824C116.298 17.4229 116.086 16.8733 115.713 16.4886C115.34 16.1038 114.755 15.9389 113.957 15.9389C112.945 15.9389 112.147 16.2137 111.508 16.7634C110.869 17.313 110.444 18.1374 110.231 19.2366L109.166 24.7328H107.357L109.379 14.2901H111.136L110.869 15.6092C111.668 14.7847 112.892 14.2901 114.436 14.2901ZM132 14.4L130.244 23.4137C129.871 25.2824 129.232 26.6565 128.221 27.4809C127.21 28.3603 125.879 28.745 124.176 28.745C123.218 28.745 122.366 28.6351 121.568 28.3603C120.769 28.0855 120.131 27.7557 119.545 27.2611L120.557 25.7771C120.982 26.1618 121.515 26.4366 122.153 26.7115C122.792 26.9313 123.537 27.0412 124.282 27.0412C125.453 27.0412 126.358 26.7664 126.997 26.2168C127.636 25.6672 128.061 24.7878 128.328 23.6336L128.487 22.8641C127.529 23.7985 126.305 24.2931 124.815 24.2931C123.91 24.2931 123.165 24.1282 122.473 23.7985C121.781 23.4687 121.248 22.974 120.876 22.3145C120.503 21.655 120.29 20.9405 120.29 20.0611C120.29 18.9618 120.557 17.9725 121.036 17.0931C121.515 16.2137 122.207 15.4992 123.111 15.0046C123.963 14.5099 124.974 14.2351 126.092 14.2351C126.944 14.2351 127.742 14.4 128.381 14.7298C129.073 15.0595 129.552 15.5542 129.871 16.2137L130.244 14.2901H132V14.4ZM125.187 22.7542C125.932 22.7542 126.624 22.5893 127.263 22.2046C127.848 21.8748 128.328 21.3802 128.7 20.7206C129.019 20.116 129.232 19.4015 129.232 18.5771C129.232 17.7527 128.966 17.0931 128.434 16.5985C127.902 16.1038 127.157 15.884 126.198 15.884C125.453 15.884 124.761 16.0489 124.123 16.4336C123.537 16.7634 123.058 17.258 122.686 17.9176C122.313 18.5771 122.153 19.2366 122.153 20.0061C122.153 20.8855 122.419 21.545 122.952 21.9847C123.537 22.5344 124.282 22.7542 125.187 22.7542Z" fill="black"/>
</svg>
