<svg width="16" height="16" viewBox="0 0 16 16" fill="none" xmlns="http://www.w3.org/2000/svg">
<g clip-path="url(#clip0_544_143)">
<path d="M14.8049 1.63676C14.7274 1.56987 14.6332 1.52538 14.5323 1.50808C14.4314 1.49079 14.3277 1.50136 14.2324 1.53864L1.56616 6.49551C1.38665 6.56531 1.23468 6.69154 1.13312 6.85519C1.03155 7.01884 0.985903 7.21105 1.00304 7.40289C1.02017 7.59473 1.09916 7.77582 1.22811 7.91888C1.35706 8.06194 1.529 8.15925 1.71804 8.19614L4.99991 8.84051V12.4999C4.99927 12.6992 5.0585 12.8941 5.16994 13.0594C5.28138 13.2247 5.43988 13.3526 5.62491 13.4268C5.80966 13.5022 6.01283 13.5203 6.208 13.4787C6.40318 13.4372 6.58133 13.3378 6.71929 13.1936L8.30179 11.5524L10.8124 13.7499C10.9935 13.9106 11.2272 13.9995 11.4693 13.9999C11.5754 13.9998 11.6808 13.9831 11.7818 13.9505C11.9468 13.8982 12.0951 13.8035 12.2121 13.676C12.3291 13.5485 12.4107 13.3925 12.4487 13.2236L14.9855 2.18739C15.0082 2.08785 15.0034 1.98402 14.9716 1.88702C14.9398 1.79002 14.8822 1.70351 14.8049 1.63676ZM11.4705 12.9999L6.30304 8.46864L13.7405 3.13801L11.4705 12.9999Z" fill="white"/>
</g>
<defs>
<clipPath id="clip0_544_143">
<rect width="16" height="16" fill="white"/>
</clipPath>
</defs>
</svg>
