<svg width="1336" height="364" viewBox="0 0 1336 364" fill="none" xmlns="http://www.w3.org/2000/svg">
<path d="M63.029 0H501L482.684 122.135H461.135L476.219 22.2064H72.7258L59.7968 108.256H37.7097L53.871 0H63.029ZM462.752 267.031L447.129 363.629H0L14.5452 267.031H36.0935L25.3194 341.423H428.813L441.203 267.031H462.752Z" fill="#E6007E"/>
<path d="M261.274 78.1128L177.235 244.913H136.293L126.597 162.062L83.4999 244.913H42.0193L26.9354 120.362H64.6451L73.2645 194.983L119.055 107.193H154.61L164.306 196.08L223.564 78.1128H261.274ZM356.626 138.468L335.616 244.913H300.6L302.755 235.037C294.135 242.719 284.439 247.108 272.587 247.108C265.045 247.108 257.503 244.913 251.039 241.072C244.035 237.232 238.648 231.745 234.877 224.063C230.568 216.93 228.952 208.151 228.952 198.275C228.952 186.753 231.645 176.328 236.493 167C241.342 157.672 248.345 149.991 256.964 145.052C265.584 139.566 275.281 136.822 285.516 136.822C300.6 136.822 311.374 141.76 317.839 151.637L320.532 139.017H356.626V138.468ZM285.516 216.382C293.058 216.382 298.984 213.638 303.293 208.151C308.142 202.664 310.297 195.532 310.297 186.753C310.297 180.717 308.681 175.23 304.91 171.938C301.139 168.097 296.29 166.451 290.364 166.451C282.823 166.451 276.897 169.195 272.587 174.682C267.739 180.168 265.584 187.301 265.584 196.08C265.584 202.116 267.2 207.603 270.971 210.895C274.742 214.736 279.59 216.382 285.516 216.382ZM490.764 138.468L423.426 249.851C418.039 258.63 412.652 265.763 407.264 271.25C402.416 276.188 397.029 280.029 391.103 282.224C385.177 284.419 378.713 285.516 371.171 285.516C365.784 285.516 359.858 284.419 354.471 282.773C349.084 281.127 344.774 278.932 341.542 276.188L357.703 249.851C362.552 253.692 367.939 255.887 373.864 255.887C377.097 255.887 379.79 255.338 382.484 253.692C384.639 252.046 387.332 249.851 389.487 246.559L366.323 138.468H402.955L415.884 203.762L454.671 138.468H490.764ZM555.41 246.559C541.942 246.559 530.629 244.365 520.932 239.426C511.235 234.488 503.693 227.904 498.845 219.125C493.458 210.346 491.303 200.47 491.303 188.947C491.303 173.584 494.535 159.867 501.539 147.247C508.542 134.627 518.239 124.751 530.629 117.069C543.019 109.937 557.564 106.096 574.264 106.096C585.577 106.096 595.274 107.742 603.893 111.583C612.513 115.423 618.977 120.362 623.826 127.495L609.819 139.566C601.739 128.592 589.348 123.654 572.648 123.654C560.258 123.654 548.945 126.397 539.787 132.433C530.629 138.468 523.087 146.15 518.239 155.477C513.39 165.354 510.697 175.779 510.697 187.85C510.697 200.47 514.468 210.895 522.548 218.028C530.629 225.709 541.942 229.55 557.026 229.55C573.726 229.55 587.193 224.063 597.968 213.09L609.281 226.258C603.355 232.842 595.274 238.329 586.116 241.621C576.958 244.913 566.723 246.559 555.41 246.559ZM743.958 140.663L723.487 244.913H705.71L708.403 232.294C703.555 236.683 698.168 239.975 692.242 242.719C686.316 244.913 679.313 246.559 672.31 246.559C663.69 246.559 655.61 244.913 649.145 241.072C642.142 237.232 636.755 232.294 632.984 225.161C629.213 218.576 627.058 210.346 627.058 201.018C627.058 188.947 629.752 178.522 634.6 169.195C639.448 159.867 646.452 152.734 655.61 147.247C664.229 141.76 674.464 139.566 685.239 139.566C693.858 139.566 701.4 141.212 707.864 144.504C714.329 147.796 718.639 152.185 722.41 158.221L725.642 140.663H743.958ZM676.619 229.55C684.161 229.55 691.164 227.904 697.09 224.063C703.016 220.222 707.865 215.284 711.635 208.151C714.868 201.567 717.023 193.885 717.023 185.107C717.023 175.779 714.329 168.646 708.942 163.708C703.555 158.77 696.013 156.026 686.316 156.026C678.774 156.026 671.771 157.672 665.845 161.513C659.919 165.354 655.071 170.292 651.3 177.425C648.068 184.009 645.913 191.691 645.913 200.47C645.913 209.797 648.606 216.93 653.994 221.868C659.381 226.807 666.923 229.55 676.619 229.55ZM786.516 211.992C785.977 214.187 785.977 215.833 785.977 217.479C785.977 221.868 787.055 225.161 789.21 227.355C791.365 229.55 794.597 230.647 799.445 230.647C804.832 230.647 809.681 229.001 813.99 225.709L817.761 239.975C811.835 244.365 803.755 246.559 794.058 246.559C785.977 246.559 779.513 244.365 774.664 239.426C769.816 235.037 767.122 228.453 767.122 220.222C767.122 217.479 767.123 214.736 767.661 212.541L778.435 156.575H761.197L763.89 141.212H781.668L786.516 117.618H804.832L800.523 140.663H830.152L826.919 156.026H797.29L786.516 211.992ZM853.316 198.824V199.921C853.316 209.797 856.01 216.93 861.397 221.868C866.784 226.807 874.864 229.55 885.639 229.55C892.103 229.55 898.029 228.453 903.416 226.258C908.803 224.063 913.652 221.32 917.423 217.479L925.503 231.196C920.655 236.134 914.19 239.426 907.187 242.17C900.184 244.913 892.642 246.011 884.561 246.011C874.326 246.011 865.706 244.365 858.703 240.524C851.161 236.683 845.774 231.745 841.464 224.612C837.693 218.028 835.539 209.797 835.539 200.47C835.539 188.947 838.232 178.522 843.081 169.195C847.929 159.867 854.932 152.734 863.552 147.247C872.171 141.76 882.406 139.566 893.181 139.566C907.187 139.566 917.961 143.406 926.581 151.637C934.661 159.867 938.971 170.841 938.971 184.558C938.971 188.947 938.432 193.337 937.355 198.275H853.316V198.824ZM892.642 155.477C883.484 155.477 875.403 158.221 868.939 163.159C862.474 168.646 858.164 175.779 855.471 184.558H921.732C922.271 175.23 919.577 168.097 914.729 162.61C908.803 158.221 901.8 155.477 892.642 155.477ZM989.071 156.026C993.381 149.991 999.306 146.15 1005.77 143.406C1012.24 140.663 1020.32 139.566 1029.47 139.566L1026.24 157.672C1025.16 157.672 1023.55 157.672 1021.39 157.672C1000.38 157.672 987.455 169.195 982.606 192.788L972.371 244.913H953.516L973.987 140.663H991.765L989.071 156.026ZM1051.56 140.663H1069.88L1049.41 244.913H1031.09L1051.56 140.663ZM1066.65 120.362C1063.41 120.362 1060.72 119.264 1058.56 117.069C1056.41 114.875 1055.33 112.131 1055.33 108.839C1055.33 104.998 1056.41 102.255 1059.1 99.5115C1061.8 96.7681 1065.03 95.6707 1068.8 95.6707C1072.03 95.6707 1074.73 96.7681 1077.42 98.9629C1079.57 101.158 1080.65 103.901 1080.65 106.644C1080.65 110.485 1079.57 113.777 1076.88 116.521C1073.65 119.264 1070.42 120.362 1066.65 120.362ZM1158.23 139.566C1170.08 139.566 1179.24 142.309 1185.7 148.345C1192.16 154.38 1195.4 163.159 1195.4 174.133C1195.4 177.974 1194.86 181.814 1194.32 186.204L1183.01 244.913H1164.69L1176 186.204C1176.54 182.912 1177.08 179.62 1177.08 177.425C1177.08 170.841 1174.93 165.354 1171.15 161.513C1167.38 157.672 1161.46 156.026 1153.38 156.026C1143.14 156.026 1135.06 158.77 1128.6 164.256C1122.13 169.743 1117.82 177.974 1115.67 188.947L1104.89 243.816H1086.58L1107.05 139.566H1124.83L1122.13 152.734C1130.21 144.504 1142.6 139.566 1158.23 139.566ZM1336 140.663L1318.22 230.647C1314.45 249.303 1307.99 263.02 1297.75 271.25C1287.52 280.029 1274.05 283.87 1256.81 283.87C1247.11 283.87 1238.49 282.773 1230.41 280.029C1222.33 277.286 1215.87 273.994 1209.94 269.055L1220.18 254.241C1224.49 258.082 1229.87 260.825 1236.34 263.569C1242.8 265.763 1250.35 266.861 1257.89 266.861C1269.74 266.861 1278.9 264.117 1285.36 258.63C1291.83 253.144 1296.14 244.365 1298.83 232.842L1300.45 225.161C1290.75 234.488 1278.36 239.426 1263.27 239.426C1254.12 239.426 1246.57 237.78 1239.57 234.488C1232.57 231.196 1227.18 226.258 1223.41 219.674C1219.64 213.089 1217.48 205.957 1217.48 197.178C1217.48 186.204 1220.18 176.328 1225.03 167.549C1229.87 158.77 1236.88 151.637 1246.04 146.699C1254.65 141.76 1264.89 139.017 1276.2 139.017C1284.82 139.017 1292.9 140.663 1299.37 143.955C1306.37 147.247 1311.22 152.185 1314.45 158.77L1318.22 139.566H1336V140.663ZM1267.05 224.063C1274.59 224.063 1281.59 222.417 1288.05 218.576C1293.98 215.284 1298.83 210.346 1302.6 203.762C1305.83 197.726 1307.99 190.593 1307.99 182.363C1307.99 174.133 1305.29 167.549 1299.91 162.61C1294.52 157.672 1286.98 155.477 1277.28 155.477C1269.74 155.477 1262.74 157.124 1256.27 160.964C1250.35 164.256 1245.5 169.195 1241.73 175.779C1237.95 182.363 1236.34 188.947 1236.34 196.629C1236.34 205.408 1239.03 211.992 1244.42 216.382C1250.35 221.868 1257.89 224.063 1267.05 224.063Z" fill="white"/>
</svg>
